<?xml version="1.0" encoding="utf-8"?>
<!-- Generator: Adobe Illustrator 17.1.0, SVG Export Plug-In . SVG Version: 6.00 Build 0)  -->
<!DOCTYPE svg PUBLIC "-//W3C//DTD SVG 1.1//EN" "http://www.w3.org/Graphics/SVG/1.1/DTD/svg11.dtd">
<svg version="1.1" id="Calque_1" xmlns="http://www.w3.org/2000/svg" xmlns:xlink="http://www.w3.org/1999/xlink" x="0px" y="0px"
	 viewBox="0 0 512 512" enable-background="new 0 0 512 512" xml:space="preserve">
<path id="certificate-2" fill="#FFFFFF" d="M459.8,218.4c1.5-4.3,2.2-8.7,2.2-13.1c0-13.2-6.5-26-18.1-34
	c-37-25.6-32.1-19.2-46-60.8c-5.8-17.4-22.6-29.1-41.6-29.1c0,0-0.1,0-0.1,0c-45.5,0.2-37.7,2.6-74.4-23.2
	c-7.7-5.4-16.7-8.1-25.8-8.1s-18.1,2.7-25.8,8.1c-37,26-28.9,23.4-74.4,23.2c-0.1,0-0.1,0-0.1,0c-19,0-35.8,11.8-41.6,29.1
	c-13.9,41.7-9.2,35.3-46,60.8c-11.6,8-18.1,20.8-18.1,34c0,4.4,0.7,8.8,2.2,13.1c14.3,41.7,14.2,33.7,0,75.2
	c-1.5,4.3-2.2,8.7-2.2,13.1c0,13.2,6.5,26,18.1,34c36.8,25.6,32.1,19.1,46,60.8c5.8,17.4,22.6,29.1,41.6,29.1c0,0,0.1,0,0.1,0
	c45.5-0.2,37.7-2.6,74.4,23.2c7.7,5.4,16.7,8.1,25.8,8.1c9.1,0,18.1-2.7,25.8-8.1c36.7-25.8,28.8-23.4,74.4-23.2c0.1,0,0.1,0,0.1,0
	c19,0,35.8-11.8,41.6-29.1c13.9-41.7,9-35.2,46-60.8c11.6-8,18.1-20.8,18.1-34c0-4.4-0.7-8.8-2.2-13.1
	C445.6,251.9,445.6,259.9,459.8,218.4z M256,401.9c-80.6,0-145.9-65.3-145.9-145.9S175.4,110.1,256,110.1S401.9,175.4,401.9,256
	S336.6,401.9,256,401.9z M234.5,323.9l-64.4-62.4l26.6-26.6l37.8,35.8l80.7-82.7l26.6,26.6L234.5,323.9z"/>
</svg>
