<?xml version="1.0" encoding="utf-8"?>
<!-- Generator: Adobe Illustrator 17.1.0, SVG Export Plug-In . SVG Version: 6.00 Build 0)  -->
<!DOCTYPE svg PUBLIC "-//W3C//DTD SVG 1.1//EN" "http://www.w3.org/Graphics/SVG/1.1/DTD/svg11.dtd">
<svg version="1.1" id="Calque_1" xmlns="http://www.w3.org/2000/svg" xmlns:xlink="http://www.w3.org/1999/xlink" x="0px" y="0px"
	 viewBox="0 0 150 150" enable-background="new 0 0 150 150" xml:space="preserve">
<path fill="#FFFFFF" d="M3.9,25.8v98.3h142.1V25.8H3.9L3.9,25.8z M14.9,113.3V65.5h25.8v47.8H14.9L14.9,113.3z M103.7,74.7V84H83.1
	v-9.3v-9.1h20.6V74.7L103.7,74.7z M51.7,94.7v-9.1h20.6v9.1H51.7L51.7,94.7z M72.3,74.7H51.7v-9.1h20.6V74.7L72.3,74.7z M51.7,113.3
	v-7.8h20.6v7.8H51.7L51.7,113.3z M83.1,113.3v-7.8V94.8h20.6v10.7v7.8H83.1L83.1,113.3z M135.3,113.3h-20.6v-7.8h20.6V113.3
	L135.3,113.3z M135.3,94.7h-20.6v-9.1h20.6V94.7L135.3,94.7z M135.3,74.7h-20.6v-9.1h20.6V74.7L135.3,74.7z M14.9,54.7V36.8h120.3
	v17.8h-20.6L14.9,54.7L14.9,54.7z"/>
</svg>
