<?xml version="1.0" encoding="utf-8"?>
<!-- Generator: Adobe Illustrator 17.1.0, SVG Export Plug-In . SVG Version: 6.00 Build 0)  -->
<!DOCTYPE svg PUBLIC "-//W3C//DTD SVG 1.1//EN" "http://www.w3.org/Graphics/SVG/1.1/DTD/svg11.dtd">
<svg version="1.1" xmlns="http://www.w3.org/2000/svg" xmlns:xlink="http://www.w3.org/1999/xlink" x="0px" y="0px"
	 viewBox="0 0 500 500" enable-background="new 0 0 500 500" xml:space="preserve">
<g id="ProfileEdges">
</g>
<g id="_x30_" display="none">
</g>
<g id="Calque_6_-_copie" display="none">
</g>
<g id="Calque_6">
</g>
<g id="Calque_3_-_copie">
	<path fill="#FFFFFF" d="M477.2,259.7L400.2,61.5c-0.4-1-1.3-1.7-2.4-1.8L214.3,44.9c-0.9-0.1-1.7,0.3-2.3,0.9L49,217.2
		c-0.8,0.9-1,2.1-0.5,3.2l100.3,206.4c0.4,0.9,1.2,1.5,2.2,1.6l242.4,31.4c0.1,0,0.2,0,0.4,0c1.1,0,2.2-0.7,2.6-1.8l80.8-196.3
		C477.4,261.1,477.4,260.4,477.2,259.7z M471.5,260.7l0,0.1l-102.8,56.3l-20.1-50.4l57.2-61.8l65.3,54.8L471.5,260.7z M369.4,319.8
		L469.7,265l-75.9,184.5L369.4,319.8z M203.5,303.5l-16.8-23.4l46.9-55.7l90.8-10.5l20.8,52.3l-42.6,46L203.5,303.5z M300.2,314.7
		l-50.1,54.1l-44.5-62.2L300.2,314.7z M298.7,143l-80-92.1L392.5,65L298.7,143z M215,50.9l81.8,94.1l-64.5,76.6l-79.2,9.2
		l61.2-179.2L215,50.9z M298.1,147.7l25.2,63.3l-87.1,10.1L298.1,147.7z M56.6,221.3l93.6,12.5l33,46.1l-16.8,19.9L56.6,221.3z
		 M153.5,233.6l76-8.8L185,277.7L153.5,233.6z M150,230.9l-94.2-12.6L209.5,56.6L150,230.9z M165.1,302.4L148.4,413L57.2,225.3
		L165.1,302.4z M184.8,282.3l14.9,20.9l-30.3-2.6L184.8,282.3z M327.4,213.5l74.6-8.7l-54.6,59L327.4,213.5z M346.4,269l19.3,48.5
		l-59.5-5.1L346.4,269z M407,202.3L399.8,76l69.2,178.2L407,202.3z M404.1,201.7l-77.9,9l-26-65.3l95.5-79.6l0.6,1.6L404.1,201.7z
		 M167.8,303.3l34.1,2.9l45.9,64.2l-97.1,46.1L167.8,303.3z M303.8,315l62.9,5.4l25,133.5l-0.5-0.1l-138.9-83.1L303.8,315z
		 M249.9,372.6l134.2,80.3l-46.1-6l-184.3-28.6L249.9,372.6z M152.3,421l73.5,11.4l-72.6-9.4L152.3,421z"/>
</g>
<g id="Calque_5" display="none">
</g>
<g id="Calque_3" display="none">
</g>
</svg>
