<?xml version="1.0" encoding="utf-8"?>
<!-- Generator: Adobe Illustrator 17.1.0, SVG Export Plug-In . SVG Version: 6.00 Build 0)  -->
<!DOCTYPE svg PUBLIC "-//W3C//DTD SVG 1.1//EN" "http://www.w3.org/Graphics/SVG/1.1/DTD/svg11.dtd">
<svg version="1.1" xmlns="http://www.w3.org/2000/svg" xmlns:xlink="http://www.w3.org/1999/xlink" x="0px" y="0px"
	 viewBox="0 0 129 129" enable-background="new 0 0 129 129" xml:space="preserve">
<g id="Calque_1">
	<path fill="#FFFFFF" d="M106.3,32.2L106.3,32.2l-55.2-6.9l0,0L15,47.8l-0.1,0.1l18,45.5l0,0.1l67.4,9.9l0.1,0L113.1,62l0,0
		L106.3,32.2z M87.9,47.3l-11.1,9.3l-6.3-0.9l-9.8-15.5l11.8-2L87.9,47.3z M72.9,38.1l32.8-5.6L88.1,47.1L72.9,38.1z M76.5,56.9
		L73,59.7L70.7,56L76.5,56.9z M60.5,39.9l-8.9-14.1l20.5,12.1L60.5,39.9z M60.2,40l-13.4,2.3l4.4-16.5L60.2,40z M60.4,40.2l9.7,15.4
		l-25.9-3.7l2.5-9.3L60.4,40.2z M43.9,51.9l-28-4l30.4-5.2L43.9,51.9z M43.9,52.2l-3.2,12.1L15.7,48.1L43.9,52.2z M44.2,52.2
		L70.3,56l2.5,4l-17,14.2l-14.9-9.7L44.2,52.2z M55.6,74.3L33.3,92.9l7.5-28.2L55.6,74.3z M55.8,74.5l9.4,6.1L33.8,92.8L55.8,74.5z
		 M56.1,74.3L73,60.2l8.8,13.9l-16.2,6.4L56.1,74.3z M81.9,74.3l18,28.4L65.8,80.6L81.9,74.3z M82.2,74.2l21.1-8.3l-3,36.8
		L82.2,74.2z M82,74l-8.8-14l3.7-3.1l26.8,3.9l-0.4,4.9L82,74z M104,60.8l8.5,1.2l-8.9,3.5L104,60.8z M104,60.5l0.3-3.5l8,4.7
		L104,60.5z M103.7,60.5l-26.6-3.8l11-9.2l15.8,9.4L103.7,60.5z M88.4,47.3L106,32.6l-2,23.9L88.4,47.3z M72.5,37.9L51.8,25.6
		l53.4,6.6L72.5,37.9z M46.5,42.3l-30.7,5.3l35.2-21.9L46.5,42.3z M40.6,64.6L33,92.8L15.4,48.2L40.6,64.6z M65.5,80.7l34.2,22.2
		l-66.1-9.7L65.5,80.7z M103.6,65.8l9.2-3.6l-12.2,39.7L103.6,65.8z M104.3,56.7l1.9-23.5l6.6,28.5L104.3,56.7z"/>
</g>
<g id="Calque_2">
</g>
</svg>
