<?xml version="1.0" encoding="utf-8"?>
<!-- Generator: Adobe Illustrator 17.1.0, SVG Export Plug-In . SVG Version: 6.00 Build 0)  -->
<!DOCTYPE svg PUBLIC "-//W3C//DTD SVG 1.1//EN" "http://www.w3.org/Graphics/SVG/1.1/DTD/svg11.dtd">
<svg version="1.1" id="Calque_3" xmlns="http://www.w3.org/2000/svg" xmlns:xlink="http://www.w3.org/1999/xlink" x="0px" y="0px"
	 viewBox="0 0 50 50" enable-background="new 0 0 50 50" xml:space="preserve">
<path fill="#FFFFFF" d="M40.1,20.9c0-0.2,0.1-0.6,0.2-0.9c0.2-1,0.5-2.4-0.2-3.7c-0.8-1.3-2.1-1.7-3.1-2.1c-0.3-0.1-0.7-0.2-0.8-0.3
	c-0.1-0.2-0.2-0.6-0.3-0.8c-0.3-1-0.8-2.4-2.1-3.1c-0.6-0.3-1.2-0.5-1.9-0.5c-0.6,0-1.3,0.1-1.8,0.2c-0.3,0.1-0.7,0.1-0.9,0.2
	c-0.2-0.1-0.5-0.4-0.7-0.6c-0.8-0.7-1.9-1.7-3.4-1.7s-2.6,1-3.4,1.7c-0.2,0.2-0.6,0.5-0.6,0.6c-0.2,0-0.6-0.1-0.9-0.2
	c-0.5-0.1-1.2-0.2-1.8-0.2c-0.7,0-1.4,0.2-1.9,0.5c-1.3,0.8-1.7,2.1-2.1,3.1c-0.1,0.3-0.2,0.7-0.3,0.8c-0.2,0.1-0.6,0.2-0.8,0.3
	c-1,0.3-2.4,0.8-3.1,2.1C9.2,17.6,9.5,19,9.7,20c0.1,0.3,0.1,0.7,0.2,0.9c-0.1,0.2-0.4,0.5-0.6,0.7c-0.7,0.8-1.7,1.9-1.7,3.4
	s1,2.6,1.7,3.4c0.2,0.2,0.5,0.5,0.6,0.7c0,0.2-0.1,0.6-0.2,0.9c-0.2,1-0.5,2.4,0.2,3.7c0.8,1.3,2.1,1.7,3.1,2.1
	c0.3,0.1,0.7,0.2,0.8,0.3c0.1,0.2,0.2,0.6,0.3,0.8c0.3,1,0.8,2.4,2.1,3.1c0.6,0.3,1.2,0.5,1.9,0.5c0.6,0,1.3-0.1,1.8-0.2
	c0.3-0.1,0.7-0.1,0.9-0.2c0.2,0.1,0.5,0.4,0.7,0.6c0.8,0.7,1.9,1.7,3.4,1.7s2.6-1,3.4-1.7c0.2-0.2,0.6-0.5,0.6-0.6
	c0.2,0,0.6,0.1,0.9,0.2c0.5,0.1,1.2,0.2,1.8,0.2c0.7,0,1.4-0.2,1.9-0.5c1.3-0.8,1.7-2.1,2.1-3.1c0.1-0.3,0.2-0.7,0.3-0.8
	c0.2-0.1,0.6-0.2,0.8-0.3c1-0.3,2.4-0.8,3.1-2.1c0.7-1.3,0.5-2.7,0.2-3.7c-0.1-0.3-0.1-0.7-0.2-0.9c0.1-0.2,0.4-0.5,0.6-0.7
	c0.7-0.8,1.7-1.9,1.7-3.4c0-1.5-1-2.6-1.7-3.4C40.5,21.4,40.2,21.1,40.1,20.9z M37.5,25.5C37,26.2,36.3,26.9,36,28
	c-0.3,1-0.1,2.1,0.1,2.9c0,0.2,0.1,0.4,0.1,0.6c-0.2,0.1-0.4,0.2-0.6,0.2c-0.8,0.3-1.8,0.6-2.6,1.3c-0.8,0.8-1.1,1.8-1.3,2.6
	c-0.1,0.2-0.1,0.4-0.2,0.6c-0.2,0-0.4-0.1-0.6-0.1c-0.9-0.2-2-0.4-2.9-0.1c-1,0.3-1.8,1-2.4,1.5c-0.2,0.1-0.4,0.3-0.5,0.5
	c-0.2-0.1-0.4-0.3-0.5-0.5C23.8,37,23.1,36.3,22,36c-0.3-0.1-0.7-0.1-1.1-0.1c-0.7,0-1.3,0.1-1.8,0.2c-0.2,0-0.4,0.1-0.6,0.1
	c-0.1-0.2-0.2-0.4-0.2-0.6c-0.3-0.8-0.6-1.8-1.3-2.6c-0.8-0.8-1.8-1.1-2.6-1.3c-0.2-0.1-0.4-0.1-0.6-0.2c0-0.2,0.1-0.5,0.1-0.6
	C14,30,14.2,29,14,28c-0.3-1-1-1.8-1.5-2.4c-0.1-0.2-0.3-0.4-0.5-0.5c0.1-0.2,0.3-0.4,0.5-0.5c0.6-0.6,1.3-1.4,1.5-2.4
	c0.3-1,0.1-2.1-0.1-2.9c0-0.2-0.1-0.4-0.1-0.6c0.2-0.1,0.4-0.2,0.6-0.2c0.8-0.3,1.8-0.6,2.6-1.3c0.8-0.8,1.1-1.8,1.3-2.6
	c0.1-0.2,0.1-0.4,0.2-0.6c0.2,0,0.4,0.1,0.6,0.1c0.9,0.2,2,0.4,2.9,0.1c1-0.3,1.8-1,2.4-1.5c0.2-0.1,0.4-0.3,0.5-0.5
	c0.2,0.1,0.4,0.3,0.5,0.5c0.6,0.6,1.4,1.2,2.4,1.5c0.9,0.2,2,0.1,2.9-0.1c0.2,0,0.4-0.1,0.6-0.1c0.1,0.2,0.2,0.4,0.2,0.6
	c0.3,0.8,0.6,1.8,1.3,2.6s1.8,1.1,2.6,1.3c0.2,0.1,0.4,0.1,0.6,0.2c0,0.2-0.1,0.5-0.1,0.6C35.9,20,35.7,21,36,22
	c0.3,1,1,1.8,1.5,2.4c0.1,0.2,0.3,0.4,0.5,0.5C37.9,25.2,37.7,25.4,37.5,25.5z"/>
<path fill="#FFFFFF" d="M30.3,19.9L23,27.3l-3.3-3.3c-0.6-0.6-1.4-0.6-2,0c-0.6,0.6-0.6,1.4,0,2l4.3,4.4c0.3,0.3,0.6,0.4,1,0.4
	s0.7-0.2,1-0.4l8.3-8.3c0.6-0.6,0.5-1.5,0-2C31.7,19.4,30.8,19.4,30.3,19.9z"/>
</svg>
