<?xml version="1.0" encoding="utf-8"?>
<!-- Generator: Adobe Illustrator 17.1.0, SVG Export Plug-In . SVG Version: 6.00 Build 0)  -->
<!DOCTYPE svg PUBLIC "-//W3C//DTD SVG 1.1//EN" "http://www.w3.org/Graphics/SVG/1.1/DTD/svg11.dtd">
<svg version="1.1" id="Calque_3" xmlns="http://www.w3.org/2000/svg" xmlns:xlink="http://www.w3.org/1999/xlink" x="0px" y="0px"
	 viewBox="0 0 50 50" enable-background="new 0 0 50 50" xml:space="preserve">
<path fill="#FFFFFF" d="M38.4,23.2c-0.8-5.4-5.5-9.6-11.1-9.6c-3.8,0-7.1,1.9-9.2,4.7c-0.3,0-0.6-0.1-0.9-0.1c-0.2,0-0.4,0-0.5,0.1
	c-4.7,0.4-8.3,4.3-8.3,9c0,5,4,9,9,9c1.8,0,3.5-0.5,4.9-1.4c1.5,0.7,3.2,1.2,5,1.2c1.4,0,2.7-0.3,4-0.7c1,0.6,2.2,0.9,3.4,0.9
	c3.9,0,7.1-3.2,7.1-7.1C41.7,26.6,40.4,24.4,38.4,23.2z M33.9,33.2c-0.9,0-1.7-0.3-2.4-0.7c-0.3-0.2-0.8-0.3-1.1-0.1
	c-1,0.5-2.1,0.7-3.3,0.7c-1.5,0-2.9-0.4-4.1-1.1c-0.1,0-0.1-0.1-0.2-0.1c-0.3-0.2-0.6-0.4-0.9-0.6c-0.5-0.4-1.2-0.3-1.6,0.2
	c-0.3,0.4-0.3,1,0,1.4c-0.7,0.3-1.5,0.5-2.3,0.5c-3.4,0-6.1-2.7-6.1-6.1c0-3.4,2.7-6.1,6.1-6.1c0.3,0,0.7,0,1,0.1c0.1,0,0.2,0,0.3,0
	c0.5,0.1,1,0.3,1.5,0.6c0.2,0.1,0.4,0.1,0.5,0.1c0.4,0,0.8-0.2,1-0.6c0.3-0.6,0.1-1.3-0.5-1.6c-0.2-0.1-0.5-0.2-0.7-0.3
	c1.5-1.7,3.7-2.7,6.1-2.7c4.3,0,7.7,3.3,8.1,7.4c0,0.4,0.3,0.8,0.6,0.9c1.4,0.7,2.4,2.2,2.4,3.8C38.2,31.2,36.3,33.2,33.9,33.2z"/>
</svg>
