<?xml version="1.0" encoding="utf-8"?>
<!-- Generator: Adobe Illustrator 17.1.0, SVG Export Plug-In . SVG Version: 6.00 Build 0)  -->
<!DOCTYPE svg PUBLIC "-//W3C//DTD SVG 1.1//EN" "http://www.w3.org/Graphics/SVG/1.1/DTD/svg11.dtd">
<svg version="1.1" id="Calque_3" xmlns="http://www.w3.org/2000/svg" xmlns:xlink="http://www.w3.org/1999/xlink" x="0px" y="0px"
	 viewBox="0 0 50 50" enable-background="new 0 0 50 50" xml:space="preserve">
<path fill="#FFFFFF" d="M29.7,11.9c-2.6,0-5,1-6.8,2.8C21,16.6,20,19,20,21.6c0,1.9,0.5,3.6,1.5,5.2L14.3,34c-0.8,0.8-0.8,2.2,0,3
	c0.4,0.4,1,0.6,1.5,0.6s1.1-0.2,1.5-0.6l7.3-7.3c1.5,1,3.3,1.5,5.2,1.5c2.6,0,5-1,6.8-2.8c1.8-1.8,2.8-4.3,2.8-6.8
	c0-2.6-1-5-2.8-6.8C34.7,12.9,32.3,11.9,29.7,11.9z M33.5,25.4c-1,1-2.4,1.6-3.8,1.6s-2.8-0.6-3.8-1.6c-1-1-1.6-2.4-1.6-3.8
	c0-1.4,0.6-2.8,1.6-3.8c1-1,2.4-1.6,3.8-1.6s2.8,0.6,3.8,1.6s1.6,2.4,1.6,3.8C35.1,23,34.6,24.4,33.5,25.4z"/>
</svg>
