<?xml version="1.0" encoding="utf-8"?>
<!-- Generator: Adobe Illustrator 17.1.0, SVG Export Plug-In . SVG Version: 6.00 Build 0)  -->
<!DOCTYPE svg PUBLIC "-//W3C//DTD SVG 1.1//EN" "http://www.w3.org/Graphics/SVG/1.1/DTD/svg11.dtd">
<svg version="1.1" id="Calque_3" xmlns="http://www.w3.org/2000/svg" xmlns:xlink="http://www.w3.org/1999/xlink" x="0px" y="0px"
	 viewBox="0 0 50 50" enable-background="new 0 0 50 50" xml:space="preserve">
<path fill="#FFFFFF" d="M13.5,41.1c1.2,0,2.1-1,2.1-2.1v-5c0-1.2-1-2.1-2.1-2.1s-2.1,1-2.1,2.1v5C11.4,40.2,12.3,41.1,13.5,41.1z"/>
<path fill="#FFFFFF" d="M19.8,41.1c1.2,0,2.1-1,2.1-2.1V27.3c0-1.2-1-2.1-2.1-2.1s-2.1,1-2.1,2.1V39C17.7,40.2,18.6,41.1,19.8,41.1z
	"/>
<path fill="#FFFFFF" d="M26.1,41.1c1.2,0,2.1-1,2.1-2.1V28.8c0-1.2-1-2.1-2.1-2.1c-1.2,0-2.1,1-2.1,2.1V39
	C23.9,40.2,24.9,41.1,26.1,41.1z"/>
<path fill="#FFFFFF" d="M32.4,41.1c1.2,0,2.1-1,2.1-2.1V20.7c0-1.2-1-2.1-2.1-2.1s-2.1,1-2.1,2.1V39C30.2,40.2,31.2,41.1,32.4,41.1z
	"/>
<path fill="#FFFFFF" d="M38.7,41.1c1.2,0,2.1-1,2.1-2.1V11c0-1.2-1-2.1-2.1-2.1s-2.1,1-2.1,2.1v28C36.5,40.2,37.5,41.1,38.7,41.1z"
	/>
</svg>
