<?xml version="1.0" encoding="utf-8"?>
<!-- Generator: Adobe Illustrator 17.1.0, SVG Export Plug-In . SVG Version: 6.00 Build 0)  -->
<!DOCTYPE svg PUBLIC "-//W3C//DTD SVG 1.1//EN" "http://www.w3.org/Graphics/SVG/1.1/DTD/svg11.dtd">
<svg version="1.1" id="Calque_3" xmlns="http://www.w3.org/2000/svg" xmlns:xlink="http://www.w3.org/1999/xlink" x="0px" y="0px"
	 viewBox="0 0 50 50" enable-background="new 0 0 50 50" xml:space="preserve">
<path fill="#FFFFFF" d="M30.3,9H19.7c-2.1,0-3.9,1.8-3.9,4V37c0,2.2,1.7,4,3.9,4h10.6c2.1,0,3.9-1.8,3.9-4V13
	C34.2,10.8,32.4,9,30.3,9z M25,38.9c-1,0-1.9-0.8-1.9-1.9s0.8-1.9,1.9-1.9c1,0,1.9,0.8,1.9,1.9S26,38.9,25,38.9z M31.8,33.5H18.2
	V13.4h13.6V33.5z"/>
</svg>
