<?xml version="1.0" encoding="utf-8"?>
<!-- Generator: Adobe Illustrator 17.1.0, SVG Export Plug-In . SVG Version: 6.00 Build 0)  -->
<!DOCTYPE svg PUBLIC "-//W3C//DTD SVG 1.1//EN" "http://www.w3.org/Graphics/SVG/1.1/DTD/svg11.dtd">
<svg version="1.1" id="Calque_3" xmlns="http://www.w3.org/2000/svg" xmlns:xlink="http://www.w3.org/1999/xlink" x="0px" y="0px"
	 viewBox="0 0 50 50" enable-background="new 0 0 50 50" xml:space="preserve">
<path fill="#FFFFFF" d="M43.1,24.2c-0.1-0.6-0.4-1.1-0.8-1.5c-1-1.2-2.2-2.3-3.8-3.5c-3.3-2.7-6.7-4.4-10-5.1
	c-2.2-0.5-4.5-0.5-6.7-0.1c-1.9,0.3-3.7,1-5.7,2c-2.6,1.3-5.1,3.2-7.4,5.4c-0.4,0.4-0.8,0.8-1.2,1.3c-1.1,1.3-1.1,3.1,0,4.4
	c1,1.2,2.2,2.3,3.8,3.6c3.3,2.7,6.7,4.4,10,5.1c1.2,0.2,2.4,0.4,3.6,0.4c0,0,0,0,0,0c1,0,2.1-0.1,3.1-0.3c1.9-0.3,3.7-1,5.7-2
	c2-1,4-2.4,5.9-4L39,25.4c0,0,0,0,0,0l0.7,4.5c0.5-0.4,1-0.9,1.5-1.4c0.4-0.4,0.8-0.8,1.2-1.2c0.3-0.3,0.5-0.6,0.6-1l0.2-0.2
	l0.1-1.3L43.1,24.2L43.1,24.2z M38.2,25.5c-2,2-4.1,3.6-6.3,4.7c-1.6,0.8-3.1,1.4-4.5,1.6C26.5,31.9,25.7,32,25,32h0
	c-0.9,0-1.8-0.1-2.7-0.3c-2.7-0.6-5.4-2-8.3-4.2c-1.1-0.9-2-1.7-2.7-2.5c0.2-0.2,0.3-0.3,0.5-0.5c2-2,4.1-3.6,6.3-4.7
	c1.6-0.8,3.1-1.4,4.5-1.6c1.7-0.3,3.4-0.3,5.1,0.1c2.7,0.6,5.4,2,8.3,4.2c1.1,0.9,2,1.7,2.7,2.5C38.5,25.2,38.3,25.3,38.2,25.5z"/>
<path fill="#FFFFFF" d="M25,18.9c-1.6,0-3.2,0.6-4.3,1.8c-1.2,1.2-1.8,2.7-1.8,4.3c0,3.4,2.8,6.1,6.1,6.1s6.1-2.8,6.1-6.1
	C31.1,21.6,28.4,18.9,25,18.9z M25,26.9c-1,0-1.9-0.8-1.9-1.9c0-0.5,0.2-1,0.6-1.3c0.4-0.4,0.8-0.6,1.3-0.6c1,0,1.9,0.8,1.9,1.9
	C26.9,26,26,26.9,25,26.9z"/>
</svg>
