<?xml version="1.0" encoding="utf-8"?>
<!-- Generator: Adobe Illustrator 17.1.0, SVG Export Plug-In . SVG Version: 6.00 Build 0)  -->
<!DOCTYPE svg PUBLIC "-//W3C//DTD SVG 1.1//EN" "http://www.w3.org/Graphics/SVG/1.1/DTD/svg11.dtd">
<svg version="1.1" id="Calque_3" xmlns="http://www.w3.org/2000/svg" xmlns:xlink="http://www.w3.org/1999/xlink" x="0px" y="0px"
	 viewBox="0 0 50 50" enable-background="new 0 0 50 50" xml:space="preserve">
<path fill="#FFFFFF" d="M24,42c0.3,0.1,0.7,0.2,1,0.2s0.7-0.1,1-0.2c13.7-4.8,13.5-25.7,13.4-28c-0.1-1.7-1.4-3-3.1-3
	C30.1,11,27,8.7,27,8.7c-1.1-0.9-2.9-0.9-4,0c0,0-3.1,2.4-9.4,2.4c-1.7,0-3,1.3-3.1,3C10.5,16.4,10.2,37.2,24,42z M25,12.4
	c1.4,0.9,4.8,2.6,10.2,2.8c-0.1,4.2-1,19-10.2,22.6c-9.2-3.6-10.1-18.5-10.2-22.6C20.2,15,23.6,13.3,25,12.4z"/>
<path fill="#FFFFFF" d="M30.6,29.8V24c0-0.8-0.6-1.4-1.4-1.5v-2.3c0-2.3-1.9-4.2-4.2-4.2c-2.3,0-4.2,1.9-4.2,4.2v2.3
	c-0.8,0-1.4,0.7-1.4,1.5v5.8c0,0.8,0.7,1.5,1.5,1.5h8.2C29.9,31.3,30.6,30.6,30.6,29.8z M26.3,28.5c0,0.1-0.1,0.1-0.2,0.1h-2.3
	c-0.1,0-0.2,0-0.2-0.1c0-0.1-0.1-0.1,0-0.2l0.6-1.3c-0.3-0.2-0.5-0.6-0.5-1c0-0.7,0.6-1.3,1.3-1.3c0.7,0,1.3,0.6,1.3,1.3
	c0,0.4-0.2,0.7-0.5,1l0.6,1.3C26.4,28.4,26.4,28.5,26.3,28.5z M27.1,22.6h-4.2v-2.3c0-1.2,1-2.1,2.1-2.1c1.2,0,2.1,1,2.1,2.1V22.6z"
	/>
</svg>
