<?xml version="1.0" encoding="utf-8"?>
<!-- Generator: Adobe Illustrator 17.1.0, SVG Export Plug-In . SVG Version: 6.00 Build 0)  -->
<!DOCTYPE svg PUBLIC "-//W3C//DTD SVG 1.1//EN" "http://www.w3.org/Graphics/SVG/1.1/DTD/svg11.dtd">
<svg version="1.1" id="Calque_3" xmlns="http://www.w3.org/2000/svg" xmlns:xlink="http://www.w3.org/1999/xlink" x="0px" y="0px"
	 viewBox="0 0 50 50" enable-background="new 0 0 50 50" xml:space="preserve">
<path fill="#FFFFFF" d="M16.7,20.3h-3.4c-0.8,0-1.5,0.7-1.5,1.5c0,0.8,0.7,1.4,1.5,1.4h3.4c0.8,0,1.5-0.7,1.5-1.4
	C18.1,21,17.5,20.3,16.7,20.3z"/>
<path fill="#FFFFFF" d="M20.4,25.4H17c-0.8,0-1.5,0.7-1.5,1.5c0,0.8,0.7,1.4,1.5,1.4h3.4c0.8,0,1.5-0.7,1.5-1.4
	C21.8,26,21.2,25.4,20.4,25.4z"/>
<path fill="#FFFFFF" d="M19,31.9c0,0.8,0.7,1.4,1.5,1.4h3.4c0.8,0,1.5-0.7,1.5-1.4c0-0.8-0.6-1.5-1.5-1.5h-3.4
	C19.7,30.4,19,31.1,19,31.9z"/>
<path fill="#FFFFFF" d="M35.5,14H14.4c0,0,0,0,0,0H11c-0.8,0-1.5,0.7-1.5,1.5c0,0.8,0.7,1.4,1.5,1.4h3.3h0.1h2.4l7.4,7.5
	c1.9,2,5.1,2,7.1,0l6.2-6.1c0.1,0.2,0.1,0.4,0.1,0.6v14.6c0,1.2-0.9,2.1-2.1,2.1h-8.8c0,0,0,0-0.1,0h-3.4c-0.8,0-1.5,0.7-1.5,1.5
	c0,0.8,0.7,1.4,1.5,1.4h0.8v0h11.4c2.8,0,5-2.2,5-5V19C40.5,16.2,38.2,14,35.5,14z M29.2,22.4c-0.8,0.8-2.1,0.8-3,0l-5.4-5.5h13.9
	L29.2,22.4z"/>
</svg>
