<?xml version="1.0" encoding="utf-8"?>
<!-- Generator: Adobe Illustrator 17.1.0, SVG Export Plug-In . SVG Version: 6.00 Build 0)  -->
<!DOCTYPE svg PUBLIC "-//W3C//DTD SVG 1.1//EN" "http://www.w3.org/Graphics/SVG/1.1/DTD/svg11.dtd">
<svg version="1.1" id="Calque_3" xmlns="http://www.w3.org/2000/svg" xmlns:xlink="http://www.w3.org/1999/xlink" x="0px" y="0px"
	 viewBox="0 0 50 50" enable-background="new 0 0 50 50" xml:space="preserve">
<path fill="#FFFFFF" d="M13.6,30.9c2.5,0,4.6-1.6,5.5-3.7h10.6c0.8,0,1.5,0.7,1.5,1.5v2.1c-2.2,0.9-3.7,3-3.7,5.5
	c0,3.2,2.6,5.9,5.9,5.9s5.9-2.6,5.9-5.9c0-2.5-1.6-4.6-3.7-5.5v-2.1c0-3.2-2.6-5.8-5.8-5.8H19.1c-0.6-1.5-1.8-2.7-3.3-3.3v-2.3
	c0-0.8,0.7-1.5,1.5-1.5h10.7c0.9,2.2,3,3.7,5.5,3.7c3.2,0,5.9-2.6,5.9-5.9c0-3.2-2.6-5.9-5.9-5.9c-2.5,0-4.6,1.6-5.5,3.7H17.3
	c-3.2,0-5.8,2.6-5.8,5.8v2.3c-2.2,0.9-3.7,3-3.7,5.5C7.7,28.3,10.4,30.9,13.6,30.9z M33.3,37.9c-0.9,0-1.6-0.7-1.6-1.6
	s0.7-1.6,1.6-1.6s1.6,0.7,1.6,1.6S34.2,37.9,33.3,37.9z M33.4,12.1c0.9,0,1.6,0.7,1.6,1.6s-0.7,1.6-1.6,1.6s-1.6-0.7-1.6-1.6
	S32.5,12.1,33.4,12.1z M13.6,26.7c-0.9,0-1.6-0.7-1.6-1.6s0.7-1.6,1.6-1.6s1.6,0.7,1.6,1.6S14.5,26.7,13.6,26.7z"/>
</svg>
