<?xml version="1.0" encoding="utf-8"?>
<!-- Generator: Adobe Illustrator 17.1.0, SVG Export Plug-In . SVG Version: 6.00 Build 0)  -->
<!DOCTYPE svg PUBLIC "-//W3C//DTD SVG 1.1//EN" "http://www.w3.org/Graphics/SVG/1.1/DTD/svg11.dtd">
<svg version="1.1" id="Calque_3" xmlns="http://www.w3.org/2000/svg" xmlns:xlink="http://www.w3.org/1999/xlink" x="0px" y="0px"
	 viewBox="0 0 50 50" enable-background="new 0 0 50 50" xml:space="preserve">
<path fill="#FFFFFF" d="M14.4,24.7l4.3-2.2c0-0.5-0.2-1-0.5-1.5c-0.3-0.5-0.6-0.9-1.1-1.1l-8.1,4.5c-0.1,0.4-0.2,0.8-0.2,1.3
	c0,0.4,0.1,0.9,0.2,1.3l8.1,4.5c0.4-0.2,0.7-0.6,1-1.1c0.3-0.5,0.5-1,0.5-1.6l-4.3-2.2c-0.5-0.3-1.1-0.5-1.9-0.8v-0.2
	C13.2,25.3,13.8,25,14.4,24.7z"/>
<path fill="#FFFFFF" d="M30,16.1c-0.8-0.6-1.7-1-2.9-1.1l-7.1,19c0.7,0.6,1.7,1,2.9,1.1L30,16.1z"/>
<path fill="#FFFFFF" d="M35.6,26.5l-4.3,2.2c0,0.5,0.2,1,0.5,1.5c0.3,0.5,0.6,0.9,1.1,1.1l8.1-4.4c0.1-0.4,0.2-0.8,0.2-1.3
	c0-0.4-0.1-0.9-0.2-1.3l-8.1-4.5c-0.4,0.2-0.7,0.6-1,1.1c-0.3,0.5-0.5,1-0.5,1.6l4.3,2.2c0.6,0.3,1.2,0.6,1.9,0.8v0.2
	C36.8,25.9,36.2,26.2,35.6,26.5z"/>
</svg>
