<?xml version="1.0" encoding="utf-8"?>
<!-- Generator: Adobe Illustrator 17.1.0, SVG Export Plug-In . SVG Version: 6.00 Build 0)  -->
<!DOCTYPE svg PUBLIC "-//W3C//DTD SVG 1.1//EN" "http://www.w3.org/Graphics/SVG/1.1/DTD/svg11.dtd">
<svg version="1.1" id="Calque_3" xmlns="http://www.w3.org/2000/svg" xmlns:xlink="http://www.w3.org/1999/xlink" x="0px" y="0px"
	 viewBox="0 0 50 50" enable-background="new 0 0 50 50" xml:space="preserve">
<path fill="#FFFFFF" d="M33.9,8.2c-0.8-0.9-2-1.4-3.2-1.4H16.5c-2.4,0-4.4,2-4.4,4.4v27.5c0,2.4,2,4.4,4.4,4.4h16.9
	c2.4,0,4.4-2,4.4-4.4V14.3c0-1.1-0.4-2.2-1.2-3L33.9,8.2z M34.6,13.2C34.6,13.2,34.7,13.2,34.6,13.2c-0.9,0.2-2,0.2-2.3-0.3
	c-0.5-0.7-0.6-1.8-0.5-2.7c0,0,0,0,0,0L34.6,13.2z M33.5,40.3H16.5c-0.9,0-1.6-0.7-1.6-1.6V11.3c0-0.9,0.7-1.6,1.6-1.6H29
	c-0.1,1.4-0.1,3.3,1,4.8c0.9,1.3,2.4,1.7,3.8,1.7c0.5,0,0.9,0,1.3-0.1v22.7C35.1,39.6,34.3,40.3,33.5,40.3z"/>
<path fill="#FFFFFF" d="M25.9,15.8C25.9,15.8,25.9,15.8,25.9,15.8c-0.1-0.1-0.3-0.2-0.4-0.2c0,0,0,0-0.1,0c-0.1,0-0.3-0.1-0.4-0.1
	c-0.2,0-0.3,0-0.4,0.1c0,0,0,0-0.1,0c-0.1,0.1-0.3,0.1-0.4,0.2c0,0,0,0,0,0l-4.4,3.6c-0.6,0.5-0.7,1.4-0.2,2
	c0.3,0.3,0.7,0.5,1.1,0.5c0.3,0,0.6-0.1,0.9-0.3l2.1-1.7v13.2c0,0.8,0.6,1.4,1.4,1.4s1.4-0.6,1.4-1.4V19.9l2.1,1.7
	c0.6,0.5,1.5,0.4,2-0.2c0.5-0.6,0.4-1.5-0.2-2L25.9,15.8z"/>
</svg>
