<?xml version="1.0" encoding="utf-8"?>
<!-- Generator: Adobe Illustrator 17.1.0, SVG Export Plug-In . SVG Version: 6.00 Build 0)  -->
<!DOCTYPE svg PUBLIC "-//W3C//DTD SVG 1.1//EN" "http://www.w3.org/Graphics/SVG/1.1/DTD/svg11.dtd">
<svg version="1.1" id="Calque_3" xmlns="http://www.w3.org/2000/svg" xmlns:xlink="http://www.w3.org/1999/xlink" x="0px" y="0px"
	 viewBox="0 0 50 50" enable-background="new 0 0 50 50" xml:space="preserve">
<path fill="#FFFFFF" d="M16,29.1l1.9-8L17.9,21c-0.3-0.1-0.7-0.2-1.1-0.2c-0.5,0-0.9,0-1.1,0.1l-0.8,3.7c-0.2,0.8-0.3,1.7-0.5,2.7
	c-0.1,0-0.1,0-0.1-0.1l-1-6.2c-0.3-0.1-0.8-0.1-1.4-0.1c-0.6,0-1.1,0-1.5,0.1l-1,6.3c-0.1,0-0.1,0-0.1-0.1c-0.1-0.6-0.2-1.5-0.4-2.6
	l-0.5-2.8c-0.1-0.4-0.2-0.6-0.4-0.8c-0.2-0.2-0.5-0.2-0.9-0.2S6.2,20.8,5.7,21l1.6,7c0.1,0.5,0.3,0.8,0.5,0.9
	c0.2,0.2,0.7,0.2,1.3,0.2s1.2,0,1.7-0.1l0.5-2.9c0.2-1.4,0.4-2.5,0.5-3.1h0.1c0.1,0.6,0.2,1.3,0.3,2.3c0.1,0.4,0.1,0.7,0.1,0.9
	l0.3,1.9c0.1,0.5,0.2,0.8,0.4,0.9c0.2,0.1,0.7,0.2,1.3,0.2C15.1,29.2,15.6,29.2,16,29.1z"/>
<path fill="#FFFFFF" d="M28.1,20.9l-0.8,3.7c-0.2,0.8-0.3,1.7-0.5,2.7c-0.1,0-0.1,0-0.1-0.1l-1-6.2c-0.3-0.1-0.8-0.1-1.4-0.1
	s-1.1,0-1.5,0.1l-1,6.3c-0.1,0-0.1,0-0.1-0.1c-0.1-0.6-0.2-1.5-0.4-2.6l-0.5-2.8c-0.1-0.4-0.2-0.6-0.4-0.8c-0.2-0.2-0.5-0.2-0.9-0.2
	c-0.4,0-0.8,0.1-1.3,0.3l1.6,7c0.1,0.5,0.3,0.8,0.5,0.9c0.2,0.2,0.7,0.2,1.3,0.2c0.6,0,1.2,0,1.7-0.1l0.5-2.9
	c0.2-1.4,0.4-2.5,0.5-3.1h0.1c0.1,0.6,0.2,1.3,0.3,2.3c0.1,0.4,0.1,0.7,0.1,0.9l0.3,1.9c0.1,0.5,0.2,0.8,0.4,0.9
	c0.2,0.1,0.7,0.2,1.3,0.2c0.7,0,1.2,0,1.6-0.1l1.9-8L30.3,21c-0.3-0.1-0.7-0.2-1.1-0.2C28.7,20.8,28.3,20.8,28.1,20.9z"/>
<path fill="#FFFFFF" d="M41.6,20.8c-0.5,0-0.9,0-1.1,0.1l-0.8,3.7c-0.2,0.8-0.3,1.7-0.5,2.7c-0.1,0-0.1,0-0.1-0.1l-1-6.2
	c-0.3-0.1-0.8-0.1-1.4-0.1c-0.6,0-1.1,0-1.5,0.1l-1,6.3c-0.1,0-0.1,0-0.1-0.1c-0.1-0.6-0.2-1.5-0.4-2.6l-0.5-2.8
	c-0.1-0.4-0.2-0.6-0.4-0.8c-0.2-0.2-0.5-0.2-0.9-0.2s-0.9,0.1-1.3,0.3l1.6,7c0.1,0.5,0.3,0.8,0.5,0.9c0.2,0.2,0.7,0.2,1.3,0.2
	c0.6,0,1.2,0,1.7-0.1l0.5-2.9c0.2-1.4,0.4-2.5,0.5-3.1h0.1c0.1,0.6,0.2,1.3,0.3,2.3c0.1,0.4,0.1,0.7,0.1,0.9l0.3,1.9
	c0.1,0.5,0.2,0.8,0.4,0.9c0.2,0.1,0.7,0.2,1.3,0.2c0.7,0,1.2,0,1.6-0.1l1.9-8L42.7,21C42.5,20.8,42.1,20.8,41.6,20.8z"/>
<path fill="#FFFFFF" d="M46.5,27c-0.3-0.2-0.8-0.3-1.3-0.3c-0.5,0-0.9,0.1-1.3,0.3c-0.1,0.3-0.2,0.6-0.2,1c0,0.4,0.1,0.7,0.2,1
	c0.3,0.2,0.7,0.3,1.3,0.3s1-0.1,1.3-0.3c0.1-0.3,0.2-0.6,0.2-1C46.7,27.6,46.6,27.3,46.5,27z"/>
</svg>
